<?xml version="1.0"?>
<svg stroke="black" stroke-width = "40" xmlns="http://www.w3.org/2000/svg" xmlns:xlink="http://www.w3.org/1999/xlink" xmlns:svgjs="http://svgjs.com/svgjs" version="1.1" width="512" height="512" x="0" y="0" viewBox="0 0 492 492" style="enable-background:new 0 0 512 512" xml:space="preserve" class=""><g>
<g xmlns="http://www.w3.org/2000/svg">
	<g>
		<path d="M465.064,207.566l0.028,0H284.436V27.25c0-14.84-12.016-27.248-26.856-27.248h-23.116    c-14.836,0-26.904,12.408-26.904,27.248v180.316H26.908c-14.832,0-26.908,12-26.908,26.844v23.248    c0,14.832,12.072,26.78,26.908,26.78h180.656v180.968c0,14.832,12.064,26.592,26.904,26.592h23.116    c14.84,0,26.856-11.764,26.856-26.592V284.438h180.624c14.84,0,26.936-11.952,26.936-26.78V234.41    C492,219.566,479.904,207.566,465.064,207.566z" fill="#ffec47" data-original="#000000" style="" class=""/>
	</g>
</g>
<g xmlns="http://www.w3.org/2000/svg">
</g>
<g xmlns="http://www.w3.org/2000/svg">
</g>
<g xmlns="http://www.w3.org/2000/svg">
</g>
<g xmlns="http://www.w3.org/2000/svg">
</g>
<g xmlns="http://www.w3.org/2000/svg">
</g>
<g xmlns="http://www.w3.org/2000/svg">
</g>
<g xmlns="http://www.w3.org/2000/svg">
</g>
<g xmlns="http://www.w3.org/2000/svg">
</g>
<g xmlns="http://www.w3.org/2000/svg">
</g>
<g xmlns="http://www.w3.org/2000/svg">
</g>
<g xmlns="http://www.w3.org/2000/svg">
</g>
<g xmlns="http://www.w3.org/2000/svg">
</g>
<g xmlns="http://www.w3.org/2000/svg">
</g>
<g xmlns="http://www.w3.org/2000/svg">
</g>
<g xmlns="http://www.w3.org/2000/svg">
</g>
</g></svg>
